<svg width="41" height="40" viewBox="0 0 41 40" fill="none" xmlns="http://www.w3.org/2000/svg">
    <path opacity="0.8" fill-rule="evenodd" clip-rule="evenodd" d="M31.2199 4.04602C29.5464 3.74726 27.7416 3.60232 25.6743 4.07475C24.5211 4.33828 23.3726 4.77383 22.183 5.38674C21.2819 4.40583 20.3561 3.60604 19.3693 2.96592C17.5975 1.81665 15.8631 1.33545 14.2209 1.04863C5.67991 -0.443072 -0.714824 7.51524 0.254445 16.0256C0.874174 21.4669 3.88318 26.3432 6.81901 30.0158C9.58961 33.4816 12.5848 36.2232 14.1896 37.6922C14.3102 37.8026 14.423 37.9058 14.5272 38.0015L16.1601 39.5024L18.2061 38.6462C18.3226 38.5974 18.4472 38.5455 18.5795 38.4904L18.5795 38.4904C20.5822 37.6559 24.3336 36.0927 28.1452 33.7659C32.1537 31.3189 36.6348 27.7902 39.1712 22.9578C41.1429 19.2011 41.4727 14.9756 40.1074 11.3694C38.7144 7.69029 35.5986 4.82772 31.2199 4.04602Z" fill="#BCCED1"/>
</svg>
